<mxfile host="app.diagrams.net" modified="2024-05-24T13:56:41.968Z" agent="Mozilla/5.0 (Windows NT 10.0; Win64; x64) AppleWebKit/537.36 (KHTML, like Gecko) Chrome/123.0.0.0 Safari/537.36 Edg/123.0.0.0" version="24.4.8" etag="rnmUg4C47w5XcbOqxJCF" type="github">
  <diagram name="Page-1" id="1X_ssLYPJuPRNMFUVIla">
    <mxGraphModel>
      <root>
        <mxCell id="0" />
        <mxCell id="1" parent="0" />
      </root>
    </mxGraphModel>
  </diagram>
</mxfile>
